# xmcd
# 
# Track frame offsets:
#     150
#     19082
#     33835
#     45865
#     70085
#     88402
#     106885
#     125850
#     136547
#     149532
# 
# Disc length: 2295
# 
# Revision: 14
# Processed by: cddbd v1.5.2PL0 Copyright (c) Steve Scherf et al.
# Submitted via: fre:ac v1.1beta1pre5
# 
DISCID=8308f50a
DTITLE=Garth Brooks - Fresh Horses
DYEAR=1995
DGENRE=Country
TTITLE0=The Old Stuff
TTITLE1=Cowboys And Angels
TTITLE2=The Fever
TTITLE3=That Ol' Wind
TTITLE4=Rollin'
TTITLE5=The Change
TTITLE6=The Beaches Of Cheyenne
TTITLE7=It's Midnight Cinderella
TTITLE8=She's Every Woman
TTITLE9=Ireland
EXTD=
EXTT0=
EXTT1=
EXTT2=
EXTT3=
EXTT4=
EXTT5=
EXTT6=
EXTT7=
EXTT8=
EXTT9=
PLAYORDER=
